<svg width="500" height="339" viewBox="0 0 500 339" fill="none" xmlns="http://www.w3.org/2000/svg">
<rect width="500" height="339" fill="#1E1E1E"/>
<path d="M250 0C166.542 0 98.6042 59.0392 94.1875 133.303C40.6458 142.006 0 184.166 0 234.954C0 292.038 51.3125 338.333 114.583 338.333H385.417C448.688 338.333 500 292.038 500 234.954C500 184.166 459.354 142.006 405.813 133.303C401.396 59.0392 333.458 0 250 0V0Z" fill="black"/>
<path d="M325 211.656V296.369H275V245.541H225V296.369H175V211.656H150L250 110L350 211.656H325ZM316.667 161.616V118.471H291.667V136.202L316.667 161.616Z" fill="white"/>
</svg>
