<svg width="559" height="403" viewBox="0 0 559 403" fill="none" xmlns="http://www.w3.org/2000/svg">
<rect width="559" height="403" fill="#1E1E1E"/>
<rect width="559" height="403" fill="white"/>
<path d="M279 32C195.542 32 127.604 91.0392 123.188 165.303C69.6458 174.006 29 216.166 29 266.954C29 324.038 80.3125 370.333 143.583 370.333H414.417C477.688 370.333 529 324.038 529 266.954C529 216.166 488.354 174.006 434.813 165.303C430.396 91.0392 362.458 32 279 32V32Z" fill="black"/>
<path d="M354 243.656V328.369H304V277.541H254V328.369H204V243.656H179L279 142L379 243.656H354ZM345.667 193.616V150.471H320.667V168.202L345.667 193.616Z" fill="white"/>
</svg>
