<svg width="23" height="20" viewBox="0 0 23 20" fill="none" xmlns="http://www.w3.org/2000/svg">
<rect width="23" height="20" fill="#1E1E1E"/>
<line x1="3" y1="0.625" x2="21" y2="0.625" stroke="black" stroke-width="0.75"/>
<line x1="20.625" y1="15" x2="20.625" y2="1" stroke="black" stroke-width="0.75"/>
<line x1="3" y1="2.625" x2="21" y2="2.625" stroke="black" stroke-width="0.75"/>
<line x1="3" y1="4.625" x2="21" y2="4.625" stroke="black" stroke-width="0.75"/>
<line x1="3" y1="6.625" x2="21" y2="6.625" stroke="black" stroke-width="0.75"/>
<line x1="3" y1="12.625" x2="21" y2="12.625" stroke="black" stroke-width="0.75"/>
<line x1="3" y1="14.625" x2="21" y2="14.625" stroke="black" stroke-width="0.75"/>
<line x1="20.625" y1="20" x2="20.625" y2="16" stroke="black" stroke-width="0.75"/>
<line x1="3.625" y1="20" x2="3.625" y2="16" stroke="black" stroke-width="0.75"/>
<line x1="4" y1="19.625" x2="21" y2="19.625" stroke="black" stroke-width="0.75"/>
<line x1="3" y1="8.625" x2="21" y2="8.625" stroke="black" stroke-width="0.75"/>
<line x1="3" y1="10.625" x2="21" y2="10.625" stroke="black" stroke-width="0.75"/>
<line x1="22" y1="0.625" x2="23" y2="0.625" stroke="black" stroke-width="0.75"/>
<line x1="22" y1="2.625" x2="23" y2="2.625" stroke="black" stroke-width="0.75"/>
<line x1="22" y1="4.625" x2="23" y2="4.625" stroke="black" stroke-width="0.75"/>
<line x1="22" y1="6.625" x2="23" y2="6.625" stroke="black" stroke-width="0.75"/>
<line x1="22" y1="12.625" x2="23" y2="12.625" stroke="black" stroke-width="0.75"/>
<line x1="22" y1="14.625" x2="23" y2="14.625" stroke="black" stroke-width="0.75"/>
<line x1="22" y1="8.625" x2="23" y2="8.625" stroke="black" stroke-width="0.75"/>
<line x1="22" y1="10.625" x2="23" y2="10.625" stroke="black" stroke-width="0.75"/>
<line y1="0.625" x2="2" y2="0.625" stroke="black" stroke-width="0.75"/>
<line x1="1.625" y1="15" x2="1.625" y2="1" stroke="black" stroke-width="0.75"/>
<line y1="2.625" x2="2" y2="2.625" stroke="black" stroke-width="0.75"/>
<line y1="4.625" x2="2" y2="4.625" stroke="black" stroke-width="0.75"/>
<line y1="6.625" x2="2" y2="6.625" stroke="black" stroke-width="0.75"/>
<line y1="12.625" x2="2" y2="12.625" stroke="black" stroke-width="0.75"/>
<line y1="14.625" x2="2" y2="14.625" stroke="black" stroke-width="0.75"/>
<line y1="8.625" x2="2" y2="8.625" stroke="black" stroke-width="0.75"/>
<line y1="10.625" x2="2" y2="10.625" stroke="black" stroke-width="0.75"/>
</svg>
